<?xml version="1.0" encoding="utf-8"?>
<!-- Generator: Adobe Illustrator 23.0.6, SVG Export Plug-In . SVG Version: 6.00 Build 0)  -->
<svg version="1.1" id="katman_1" xmlns="http://www.w3.org/2000/svg" xmlns:xlink="http://www.w3.org/1999/xlink" x="0px" y="0px"
	 width="300px" height="300px" viewBox="0 0 300 300" style="enable-background:new 0 0 300 300;" xml:space="preserve">
<style type="text/css">
	.st0{fill:url(#SVGID_1_);}
	.st1{fill:none;stroke:#FFFFFF;stroke-width:10;stroke-linejoin:round;}
	.st2{opacity:0.15;fill:#FFFFFF;enable-background:new    ;}
	.st3{opacity:0.9;fill:#FFFFFF;enable-background:new    ;}
	.st4{fill:none;stroke:#FFFFFF;stroke-width:6;stroke-linecap:round;stroke-linejoin:round;}
	.st5{fill:#FFFFFF;}
	.st6{font-family:'Arial-BoldMT';}
	.st7{font-size:36px;}
	.st8{opacity:0.7;fill:#FFFFFF;enable-background:new    ;}
	.st9{font-family:'ArialMT';}
	.st10{font-size:18px;}
</style>
<linearGradient id="SVGID_1_" gradientUnits="userSpaceOnUse" x1="-806.3033" y1="689.7033" x2="-805.3033" y2="688.7033" gradientTransform="matrix(300 0 0 -300 241891 206911)">
	<stop  offset="0" style="stop-color:#0EA5E9"/>
	<stop  offset="1" style="stop-color:#0284C7"/>
</linearGradient>
<path class="st0" d="M40,0h220c22.1,0,40,17.9,40,40v220c0,22.1-17.9,40-40,40H40c-22.1,0-40-17.9-40-40V40C0,17.9,17.9,0,40,0z"/>
<g>
	<g transform="translate(150, 100)">
		<path class="st1" d="M-15.2-17.9h30l5,55h-40L-15.2-17.9z"/>
		<path class="st2" d="M-12.2-12.9h24l4,45h-32L-12.2-12.9z"/>
		<circle class="st3" cx="-0.2" cy="42.1" r="10"/>
		<path class="st4" d="M-5.2,47.1l5,5l5-5"/>
	</g>
	<text transform="matrix(1 0 0 1 42.561 182.0776)" class="st5 st6 st7">Admin Clean</text>
	<text transform="matrix(1 0 0 1 106.3081 212.0776)" class="st8 st9 st10">DevForge</text>
</g>
</svg>
